# Blender v2.73 (sub 0) OBJ File: 'technic-icorner.blend'
# www.blender.org
o Cube_Cube.000
v -0.500000 0.500000 0.500000
v -0.500000 0.500000 -0.500000
v -0.500000 -0.500000 -0.500000
v -0.500000 -0.500000 0.500000
v 0.500000 -0.500000 -0.500000
v 0.500000 0.500000 0.500000
v -0.500000 -0.500000 0.500000
v 0.500000 -0.500000 0.500000
v 0.500000 -0.500000 -0.500000
vt 1.000000 1.000000
vt 0.000000 1.000000
vt 0.000000 0.000000
vt 1.000000 0.000000
vn -0.000000 -0.000000 1.000000
vn -0.000000 -0.000000 -1.000000
vn 0.707100 0.707100 -0.000000
vn 1.000000 0.000000 -0.000000
vn 0.000000 -1.000000 -0.000000
vn -1.000000 -0.000000 -0.000000
vn 0.000000 0.707100 -0.707100
s off
f 6/1/1 1/2/1 7/3/1 8/4/1
f 2/1/2 5/3/2 3/4/2
f 2/1/3 1/2/3 5/4/3
f 6/2/4 8/3/4 9/4/4
f 9/1/5 8/2/5 7/3/5 3/4/5
f 3/3/6 7/4/6 1/1/6 2/2/6
f 1/1/7 6/2/7 9/3/7
l 1 4
l 3 4
