# Blender v2.73 (sub 0) OBJ File: 'slope_test_quarter_round_onetexture.blend'
# www.blender.org
o Cylinder
v -0.500000 0.490393 -0.097545
v 0.500000 0.490393 -0.097545
v -0.500000 0.461940 -0.191342
v 0.500000 0.461940 -0.191342
v -0.500000 0.415735 -0.277785
v 0.500000 0.415735 -0.277785
v -0.500000 0.353553 -0.353553
v 0.500000 0.353553 -0.353553
v -0.500000 0.277785 -0.415735
v 0.500000 0.277785 -0.415735
v -0.500000 0.191342 -0.461940
v 0.500000 0.191342 -0.461940
v -0.500000 0.097545 -0.490393
v 0.500000 0.097545 -0.490393
v 0.500000 -0.000000 -0.500000
v -0.500000 0.000000 0.000000
v 0.500000 -0.000000 -0.000000
v -0.500000 -0.500000 0.500000
v -0.500000 -0.500000 -0.500000
v 0.500000 -0.500000 -0.500000
v 0.500000 -0.500000 0.500000
v -0.500000 0.500000 0.500000
v 0.500000 0.500000 0.500000
v -0.500000 0.000000 -0.500000
v -0.500000 0.500000 -0.000000
v 0.500000 0.500000 0.000000
vt 0.146446 0.853552
vt 0.084265 0.777783
vt 0.038060 0.691340
vt 0.499999 0.499999
vt 1.000000 0.375000
vt 0.000000 0.375000
vt 0.000000 0.250000
vt 1.000000 0.250000
vt 0.000000 0.125000
vt 1.000000 0.125000
vt 0.000000 -0.000000
vt 1.000000 -0.000000
vt 1.000000 1.000000
vt 0.000000 1.000000
vt 0.000000 0.875000
vt 1.000000 0.875000
vt 0.000000 0.750000
vt 1.000000 0.750000
vt 0.000000 0.625000
vt 1.000000 0.625000
vt 0.308658 0.961938
vt 0.222214 0.915733
vt 0.915735 0.777785
vt 0.853554 0.853553
vt 0.961940 0.691341
vt 0.777786 0.915735
vt 0.691342 0.961940
vt 0.000000 0.500000
vt 1.000000 0.500000
vt 0.990393 0.597545
vt 0.499999 0.999998
vt 0.402454 0.990391
vt 0.009607 0.597544
vt 0.597546 0.990393
vn -0.685700 0.514700 -0.514700
vn -0.685700 0.404400 -0.605200
vn -0.685700 0.278500 -0.672500
vn -1.000000 0.000000 0.000000
vn -0.685700 0.713900 -0.142000
vn 0.685700 0.713900 -0.142000
vn 0.685700 0.672500 -0.278500
vn -0.685700 0.672500 -0.278500
vn 0.685700 0.605200 -0.404400
vn -0.685700 0.605200 -0.404400
vn 0.685700 0.514700 -0.514700
vn 0.685700 0.404400 -0.605200
vn 0.685700 0.278500 -0.672500
vn 0.685700 0.142000 -0.713900
vn -0.685700 0.142000 -0.713900
vn 1.000000 0.000000 0.000000
vn -0.577300 -0.577300 -0.577300
vn 0.577300 -0.577300 -0.577300
vn 0.577300 -0.577300 0.577300
vn -0.577300 -0.577300 0.577300
vn 0.577300 0.577300 0.577300
vn 0.696200 0.716900 -0.035200
vn -0.696200 0.716900 -0.035200
vn -0.577300 0.577300 0.577300
vn 0.696200 0.035200 -0.716900
vn -0.696200 0.035200 -0.716900
s 1
f 7/1/1 9/2/2 11/3/3 16/4/4
f 1/5/5 2/6/6 4/7/7 3/8/8
f 3/8/8 4/7/7 6/9/9 5/10/10
f 5/10/10 6/9/9 8/11/11 7/12/1
f 7/13/1 8/14/11 10/15/12 9/16/2
f 9/16/2 10/15/12 12/17/13 11/18/3
f 11/18/3 12/17/13 14/19/14 13/20/15
f 3/21/8 5/22/10 7/1/1 16/4/4
f 10/23/12 8/24/11 17/4/16 12/25/13
f 6/26/9 4/27/7 17/4/16 8/24/11
f 19/13/17 20/14/18 21/11/19 18/12/20
f 23/14/21 26/28/22 25/29/23 22/13/24
f 22/14/24 18/11/20 21/12/19 23/13/21
f 14/30/14 12/25/13 17/4/16 15/29/25
f 22/13/24 25/31/23 16/4/4 24/28/26 19/11/17 18/12/20
f 25/31/23 1/32/5 3/21/8 16/4/4
f 13/20/15 14/19/14 15/28/25 24/29/26
f 11/3/3 13/33/15 24/28/26 16/4/4
f 2/34/6 26/31/22 17/4/16 4/27/7
f 25/29/23 26/28/22 2/6/6 1/5/5
f 19/12/17 24/29/26 15/28/25 20/11/18
f 20/12/18 15/29/25 17/4/16 26/31/22 23/14/21 21/11/19
