# Blender v2.73 (sub 0) OBJ File: 'slope_test_quarter_round_corner_onetexture.blend'
# www.blender.org
o corner1_Cylinder
v 0.415732 0.277783 0.499997
v 0.461936 0.191340 0.499997
v 0.415735 0.277783 -0.415732
v 0.461940 0.191340 -0.461937
v 0.490389 0.097544 0.499997
v 0.353551 0.353551 0.499997
v 0.353555 0.353551 -0.353551
v 0.499996 -0.000000 0.499997
v 0.277783 0.415732 0.499997
v 0.490393 0.097544 -0.490389
v 0.277787 0.415732 -0.277784
v 0.191340 0.461936 0.499997
v -0.499997 -0.499997 0.499997
v 0.191344 0.461937 -0.191341
v 0.097544 0.490389 0.499997
v 0.097547 0.490391 -0.097545
v -0.000000 0.499996 0.499997
v -0.499997 0.499997 0.499997
v -0.499997 0.499997 -0.000030
v -0.499997 0.415735 -0.277785
v -0.499997 0.461940 -0.191342
v -0.499997 0.490393 -0.097545
v -0.500000 -0.500000 -0.500000
v -0.033351 -0.033351 0.499997
v 0.000000 0.499998 0.000000
v -0.499998 0.000014 -0.499999
v -0.499997 0.353553 -0.353554
v -0.499998 0.097545 -0.490393
v -0.499997 0.277785 -0.415735
v -0.499998 0.191342 -0.461940
v 0.499997 -0.000000 -0.499996
v 0.500000 -0.500000 -0.500000
v 0.499997 -0.499997 0.499997
v -0.499998 -0.033351 0.033348
vt -0.000000 0.000000
vt 1.000000 0.000000
vt 1.000000 1.000000
vt -0.000000 1.000000
vt 0.999996 0.125448
vt 0.222353 0.125462
vt 0.146597 0.000612
vt 0.999995 0.000594
vt 0.000178 0.874582
vt 0.915751 0.874577
vt 0.853580 0.999436
vt 0.000178 0.999439
vt 0.999808 0.625427
vt 0.009599 0.625446
vt -0.000005 0.500594
vt 0.999807 0.500594
vt 0.597441 0.374574
vt 0.499912 0.499435
vt 0.000000 0.499434
vt 0.000000 0.374576
vt 0.999999 0.375154
vt 1.000000 0.499969
vt 0.500093 0.500015
vt 0.402562 0.375164
vt 0.999812 0.999983
vt 0.146415 1.000000
vt 0.084244 0.875149
vt 0.999811 0.875131
vt 0.990396 0.624861
vt 0.961947 0.749719
vt 0.000178 0.749724
vt 0.000178 0.624866
vt 0.777649 0.124857
vt 0.691221 0.249715
vt 0.000001 0.249719
vt 0.000001 0.124861
vt 0.308782 0.250314
vt 0.999998 0.250301
vt 0.853403 -0.000000
vt 0.038047 0.750298
vt 0.999809 0.750280
vt 0.000177 0.500008
vt 0.961948 0.691403
vt 0.915752 0.777829
vt 0.466756 0.466756
vt 0.000000 0.500000
vt 0.000201 1.000000
vt 0.000201 0.000201
vt 0.500101 1.000000
vt 0.853583 0.853583
vt 0.777830 0.915751
vt 0.691404 0.961947
vt 0.597626 0.990394
vt 1.000000 0.000200
vt 1.000000 0.500100
vt 0.990395 0.597625
vt 0.500000 1.000000
vt 0.500000 0.500000
vt 0.533443 0.466757
vt 0.000202 0.500115
vt 0.402575 0.990397
vt 0.308797 0.961949
vt 0.222371 0.915753
vt 0.146617 0.853584
vt 0.084449 0.777831
vt 0.038253 0.691405
vt 0.009806 0.597626
vn 0.577300 -0.577300 0.577300
vn -0.577300 -0.577300 0.577300
vn -0.577300 -0.577300 -0.577300
vn 0.577300 -0.577300 -0.577300
vn -0.685700 0.605200 -0.404400
vn 0.325800 0.887500 -0.325800
vn 0.429700 0.794100 -0.429700
vn -0.685700 0.514700 -0.514700
vn 0.605200 0.404400 0.685700
vn 0.531000 0.660300 -0.531000
vn 0.514700 0.514700 0.685700
vn -0.685700 0.142000 -0.713900
vn 0.683900 0.254100 -0.683900
vn 0.705500 0.067100 -0.705500
vn -0.696200 0.035200 -0.716900
vn 0.123100 0.984700 -0.123100
vn 0.036800 0.998600 -0.036800
vn 0.035200 0.716900 0.696200
vn 0.142000 0.713900 0.685700
vn -0.685700 0.713900 -0.142000
vn -0.696200 0.716900 -0.035200
vn -0.685700 0.404400 -0.605200
vn 0.620400 0.479600 -0.620400
vn 0.672500 0.278500 0.685700
vn 0.713900 0.142000 0.685700
vn 0.223300 0.948800 -0.223200
vn 0.278500 0.672500 0.685700
vn 0.404400 0.605200 0.685700
vn -0.685700 0.672500 -0.278500
vn -0.685700 0.278500 -0.672500
vn 0.716900 0.035200 0.696200
vn 0.000000 0.000000 1.000000
vn -0.577300 0.577300 0.577300
vn -1.000000 0.000000 0.000000
s 1
f 33/1/1 13/2/2 23/3/3 32/4/4
f 20/5/5 11/6/6 7/7/7 27/8/8
f 1/9/9 3/10/10 7/11/7 6/12/11
f 28/13/12 10/14/13 31/15/14 26/16/15
f 16/17/16 25/18/17 17/19/18 15/20/19
f 22/21/20 19/22/21 25/23/17 16/24/16
f 27/25/8 7/26/7 3/27/10 29/28/22
f 10/29/13 4/30/23 2/31/24 5/32/25
f 11/33/6 14/34/26 12/35/27 9/36/28
f 22/21/20 16/24/16 14/37/26 21/38/29
f 21/38/29 14/37/26 11/6/6 20/5/5
f 9/36/28 6/1/11 7/39/7 11/33/6
f 4/30/23 3/10/10 1/9/9 2/31/24
f 3/27/10 4/40/23 30/41/30 29/28/22
f 10/29/13 5/32/25 8/42/31 31/22/14
f 2/43/24 1/44/9 24/45/32
f 30/41/30 4/40/23 10/14/13 28/13/12
f 26/22/15 31/46/14 32/1/4 23/2/3
f 18/47/33 13/48/2 24/45/32 17/49/18
f 1/44/9 6/50/11 24/45/32
f 6/50/11 9/51/28 24/45/32
f 9/51/28 12/52/27 24/45/32
f 12/52/27 15/53/19 24/45/32
f 15/53/19 17/49/18 24/45/32
f 33/54/1 8/55/31 24/45/32 13/48/2
f 8/55/31 5/56/25 24/45/32
f 5/56/25 2/43/24 24/45/32
f 17/57/18 25/58/17 19/22/21 18/3/33
f 8/46/31 33/1/1 32/2/4 31/22/14
f 12/35/27 14/34/26 16/17/16 15/20/19
f 23/48/3 13/54/2 34/59/34 26/60/15
f 19/49/21 22/61/20 34/59/34
f 22/61/20 21/62/29 34/59/34
f 21/62/29 20/63/5 34/59/34
f 20/63/5 27/64/8 34/59/34
f 27/64/8 29/65/22 34/59/34
f 29/65/22 30/66/30 34/59/34
f 30/66/30 28/67/12 34/59/34
f 28/67/12 26/60/15 34/59/34
f 18/3/33 19/49/21 34/59/34 13/54/2
