# Blender v2.73 (sub 0) OBJ File: 'technic-slope-horizontal.blend'
# www.blender.org
o Cube_Cube.002
v -0.500000 0.500000 0.500000
v -0.500000 -0.500000 0.500000
v 0.500000 -0.500000 0.500000
v 0.500000 0.500000 0.500000
v 0.500000 -0.500000 -0.500000
v 0.500000 0.500000 -0.500000
vt 0.000000 1.000000
vt 0.000000 0.000000
vt 1.000000 0.000000
vt 1.000000 1.000000
vn 0.000000 -0.000000 1.000000
vn 1.000000 -0.000000 -0.000000
vn -0.000000 -1.000000 0.000000
vn 0.000000 1.000000 -0.000000
vn -0.707100 0.000000 -0.707100
s off
f 1/1/1 2/2/1 3/3/1 4/4/1
f 4/1/2 3/2/2 5/3/2 6/4/2
f 2/3/3 5/1/3 3/2/3
f 1/4/4 4/1/4 6/2/4
f 2/3/5 1/4/5 6/1/5 5/2/5
